<svg width="32" height="32" viewBox="0 0 24 28" fill="none" xmlns="http://www.w3.org/2000/svg">
<g xmlns="http://www.w3.org/2000/svg" filter="url(filter0_i_187_4995)">
<path d="M11.9426 27.9999C18.5301 28.031 23.9468 22.6866 23.9996 16.0987C24.01 14.7779 23.8064 13.5062 23.4227 12.3155C20.5861 12.5502 17.8155 13.7513 15.6455 15.9215C13.2925 18.2745 12.0783 21.3337 12.001 24.4165C11.9953 24.6475 11.6956 24.7323 11.5674 24.5409C10.0232 22.2341 7.39405 20.7153 4.40948 20.7153C3.29145 20.7153 2.22243 20.9284 1.24203 21.3168C3.19435 25.2603 7.24982 27.9772 11.9426 27.9999Z" fill="#1812FF"/>
<path d="M11.9999 7.58728C12.0056 7.35631 12.3053 7.27146 12.4335 7.46284C13.9777 9.76973 16.6068 11.2885 19.5914 11.2885C20.7104 11.2885 21.7794 11.0745 22.7598 10.6861C20.8084 6.74069 16.752 4.02277 12.0584 4.00014C5.46988 3.96809 0.0522254 9.31532 0.00037734 15.9041C-0.00999227 17.2249 0.193629 18.4976 0.578247 19.6883C3.41386 19.4536 6.18538 18.2525 8.35451 16.0823C10.7075 13.7292 11.9217 10.67 11.999 7.58728H11.9999Z" fill="#1812FF"/>
<mask id="mask0_187_4995" style="mask-type:alpha" maskUnits="userSpaceOnUse" x="0" y="4" width="24" height="24">
<path d="M11.9426 27.9999C18.5301 28.031 23.9468 22.6866 23.9996 16.0987C24.01 14.7779 23.8064 13.5062 23.4227 12.3155C20.5861 12.5502 17.8155 13.7513 15.6455 15.9215C13.2925 18.2745 12.0783 21.3337 12.001 24.4165C11.9953 24.6475 11.6956 24.7323 11.5674 24.5409C10.0232 22.2341 7.39405 20.7153 4.40948 20.7153C3.29145 20.7153 2.22243 20.9284 1.24203 21.3168C3.19435 25.2603 7.24982 27.9772 11.9426 27.9999Z" fill="#1812FF"/>
<path d="M11.9999 7.58728C12.0056 7.35631 12.3053 7.27146 12.4335 7.46284C13.9777 9.76973 16.6068 11.2885 19.5914 11.2885C20.7104 11.2885 21.7794 11.0745 22.7598 10.6861C20.8084 6.74069 16.752 4.02277 12.0584 4.00014C5.46988 3.96809 0.0522254 9.31532 0.00037734 15.9041C-0.00999227 17.2249 0.193629 18.4976 0.578247 19.6883C3.41386 19.4536 6.18538 18.2525 8.35451 16.0823C10.7075 13.7292 11.9217 10.67 11.999 7.58728H11.9999Z" fill="#1812FF"/>
</mask>
<g mask="url(#mask0_187_4995)">
<g filter="url(#filter1_f_187_4995)">
<ellipse cx="2.35034" cy="12.3155" rx="12.2031" ry="12.2449" fill="#3CD1EE"/>
</g>
<g filter="url(#filter2_f_187_4995)">
<ellipse cx="21.15" cy="24.1166" rx="13.9477" ry="13.9955" fill="#CB19EA"/>
</g>
</g>
<mask id="mask1_187_4995" style="mask-type:alpha" maskUnits="userSpaceOnUse" x="1" y="12" width="23" height="16">
<path d="M11.9426 27.9999C18.5301 28.031 23.9468 22.6866 23.9996 16.0987C24.01 14.7779 23.8064 13.5062 23.4227 12.3155C20.5861 12.5502 17.8155 13.7513 15.6455 15.9215C13.2925 18.2746 12.0783 21.3338 12.001 24.4165C11.9953 24.6475 11.6956 24.7323 11.5674 24.541C10.0232 22.2341 7.39405 20.7153 4.40948 20.7153C3.29144 20.7153 2.22243 20.9284 1.24202 21.3168C3.19434 25.2603 7.24982 27.9773 11.9426 27.9999Z" fill="#1812FF"/>
</mask>
<g mask="url(#mask1_187_4995)">
<g filter="url(#filter3_f_187_4995)">
<ellipse cx="23.9494" cy="14.7967" rx="7.62705" ry="7.27286" transform="rotate(90 23.9494 14.7967)" fill="#FF0833"/>
</g>
</g>
</g>
</svg>